<?xml version="1.0" encoding="utf-8"?>

<svg version="1.1" id="Layer_1" xmlns="http://www.w3.org/2000/svg" xmlns:xlink="http://www.w3.org/1999/xlink" 
	 viewBox="0 0 513.9 513.9" xml:space="preserve">
<style type="text/css">
	.st0{fill:#FFCF00;}
	.st1{fill:#FFFFFF;stroke:#FFFFFF;stroke-miterlimit:10;}
	.st2{fill:#FFCF00;stroke:#FFCF00;stroke-miterlimit:10;}
</style><g transform="translate(0,40.700)">
<path class="st0" d="M297.7,382c10-29.9,20-59.9,29.9-89.8c17.7-53.3,35.4-106.7,53-160.1c12.9,25.2,20.3,53.8,20.3,84.2
	C400.9,289,358.8,351.9,297.7,382z"/>
<path class="st0" d="M504.9,0c-5.1,19-12,37.4-18.2,56.1c-34.6,104.7-69.3,209.3-104,314c-6.5,19.7-13.1,39.4-19.5,59.1
	c-1.1,3.5-2.6,5-6.4,5c-23.8-0.1-47.7,0-71.5,0.2c-6.4,0-3.8-3.7-2.9-6.5c3.2-9.6,6.3-19.1,9.5-28.7
	c71.8-29.7,122.3-100.5,122.3-183c0-37-10.2-71.7-27.9-101.4c12.4-37.5,24.9-75.1,37.3-112.6c0.2-0.7,0.3-1.5,0.4-2.3H504.9z"/>
<path class="st1" d="M216.3,0C96.8,0,0,96.8,0,216.3c0,119.4,96.8,216.3,216.3,216.3s216.3-96.8,216.3-216.3
	C432.6,96.8,335.7,0,216.3,0z M216.3,418.5C104.6,418.5,14,328,14,216.3C14,104.6,104.6,14,216.3,14s202.3,90.6,202.3,202.3
	C418.6,328,328,418.5,216.3,418.5z"/>
<path class="st2" d="M216.3,18.3c-109.3,0-198,88.6-198,197.9c0,109.3,88.6,198,198,198c26.8,0,52.4-5.3,75.7-15
	c1.9-5.8,3.8-11.5,5.7-17.2c-24.6,12.1-52.2,18.9-81.4,18.9c-102,0-184.6-82.6-184.6-184.6c0-102,82.6-184.6,184.6-184.6
	c71.6,0,133.8,40.8,164.3,100.4c1.9-5.7,3.8-11.5,5.7-17.2C351.8,57.1,288.5,18.3,216.3,18.3z"/>
<path class="st1" d="M276.2,238.9c2.9-5.2,3.9-10.4,4.2-15.8c0.1-1.4,0.1-2.9,0-4.3c-0.2-2.7-1.4-3.9-4.1-4.2
	c-0.9-0.1-1.8-0.1-2.7-0.1c-2.9,0-3.5-0.8-2.9-3.8c0.2-1.1,0.9-0.8,1.6-0.8c2.6,0,5.2,0,7.9,0c9.6,0,19.2,0.1,28.8-0.1
	c2.2,0,2,1.1,2,2.5c0.1,1.6-0.3,2.5-2.1,2.2c-0.8-0.1-1.7,0-2.5,0c-3.8,0-5.2,1.2-5.8,5c-1.2,8-3.3,15.6-7.5,22.6
	c-1.5,2.5-3.3,4.9-5.4,7c-0.8,0.7-0.8,1.2,0,2c4.4,4.4,8.5,9,13.4,12.9c3.1,2.5,6.5,3.7,10.5,3.6c5.6-0.2,11.2-0.1,16.7-0.2
	c4.9,0,6.6-1.5,7.1-6.4c0.2-2.1,0.4-4.3,0.4-6.4c0-25.2,0-50.3,0-75.5c0-2.8-0.1-5.5-0.6-8.2c-0.7-3.9-2-5-5.9-5.4
	c-0.8-0.1-1.5-0.1-2.3,0c-1.8,0.2-2.4-0.3-2.4-2.3c0-2,0.6-2.4,2.5-2.4c15.7,0.1,31.3,0.1,47,0c2.2,0,1.9,1.1,2,2.5
	c0.1,1.5-0.1,2.3-2,2.3c-7-0.1-8.7,1.5-8.9,8.5c-0.7,26.2-0.2,52.4-0.2,78.6c0,3.1,0,6.3,0.6,9.5c0.8,3.8,2.1,5.1,5.9,5.3
	c0.8,0,1.5,0.1,2.3,0c1.9-0.3,2.4,0.5,2.4,2.4c0,2-0.5,2.5-2.5,2.5c-28.7-0.1-57.5-0.1-86.2,0c-7.1,0-13.3-2.3-18.7-7
	c-0.6-0.5-1-1.3-2.1-0.5c-7.5,5.5-16.1,8.1-25.3,9.3c-10.9,1.5-21.6,0.7-31.8-3.5c-8.3-3.4-14.9-8.8-17.7-17.8
	c-3.3-10.6,0.4-21.9,9.3-28.5c0.7-0.5,1.3-0.6,2.1-0.6c4.5,0,9,0.1,13.4,0c1.5,0,1.7,0.3,1.1,1.7c-4.5,11.4-3.3,22.6,2.4,33.2
	c4,7.4,10.8,10.7,19.2,10.7c8.4,0,15.5-3,21.7-8.6c1-0.9,0.9-1.5,0-2.4c-15.6-16.9-31.2-33.8-46.5-51c-4.3-4.8-7.9-10-9.1-16.4
	c-2.4-11.8,2.9-22.5,14.2-27.6c13.8-6.3,28-6.6,42.1-0.9c5.7,2.3,9.8,6.3,11.3,12.6c1.1,4.8,0.3,9.4-2.2,13.7
	c-0.4,0.7-0.9,1.1-1.8,1.1c-4.3,0-8.7,0.1-13,0.2c-1.5,0-1.5-0.4-1.1-1.7c2.3-6.4,2.3-12.6-1.8-18.3c-3.7-5.1-8.9-6.7-15-5.5
	c-5.4,1.1-9.3,4-10.9,9.4c-1.1,3.8-0.5,7.5,1.2,11c2.2,4.6,5.4,8.4,8.7,12.3c7.6,8.9,16,17.1,24,25.7c4.6,4.9,9.3,9.8,13.9,14.7
	C275.3,237.7,275.7,238.2,276.2,238.9z"/>
<path class="st1" d="M143.6,181.7c-2.6,7-5.3,14-7.9,21c-7.9,21.1-15.9,42.1-23.8,63.2c-0.6,1.7-1.5,2.3-3.3,2.2
	c-2.2-0.2-4.4-0.2-6.6,0c-1.4,0.1-2.1-0.5-2.6-1.7c-5.6-14.3-11.2-28.5-16.8-42.8c-5.2-13.2-10.3-26.3-15.5-39.5
	c-0.2-0.4-0.4-0.8-0.8-1.1c0,0.7,0,1.3,0,2c0,21,0,41.9,0,62.9c0,3.9,0.2,7.9,1.3,11.7c1.6,5.2,4.6,7.6,10.1,7.8
	c1.3,0,1.8,0.4,1.7,1.7c0,2.9,0,2.9-3,2.9c-8.8,0-17.7,0-26.5,0c-0.7,0-1.8,0.3-1.5-1c0.3-1.2-1.1-3.4,0.9-3.7
	c6.6-0.9,8.4-5.6,9.4-11.1c0.4-2.4,0.5-4.8,0.5-7.2c0-24.3,0-48.5-0.1-72.8c0-2.1-0.2-4.3-0.7-6.3c-0.7-3-2-4-5.2-4.5
	c-0.7-0.1-1.5-0.1-2.3-0.1c-2.9,0-3.5-0.9-2.9-3.8c0.2-1.1,1-0.8,1.6-0.8c3,0,6.1,0,9.1,0c9.2,0,18.3,0.1,27.5-0.1
	c1.8,0,2.4,0.8,3,2.2c9,22.7,18,45.5,27,68.2c0.3,0.7,0.6,1.4,1,2.3c4.1-10.7,8.1-21,12.1-31.4c5-13.1,10.1-26.3,15.1-39.4
	c0.5-1.4,1.2-1.8,2.7-1.8c11.7,0.1,23.4,0.1,35.2,0c2.4,0,1.8,1.3,1.9,2.6c0.1,1.4-0.1,2.2-1.9,2.1c-7-0.1-8.7,1.6-8.9,8.5
	c-0.7,25.1-0.2,50.2-0.3,75.3c0,4.2-0.1,8.4,0.6,12.6c0.7,4.1,1.9,5.1,5.9,5.5c0.5,0.1,1.1,0.1,1.6,0.2c3,0.2,2.9,0.2,3,3.2
	c0.1,1.7-0.9,1.5-1.9,1.5c-11.8,0-23.6,0-35.4,0c-4.1,0-8.3-0.1-12.4,0c-1.4,0-2-0.4-1.6-1.7c0.3-1.1-1.1-3.1,1.6-3
	c1.3,0.1,2.6-0.1,3.9-0.3c2.7-0.3,4.1-1.5,4.7-4.1c0.6-2.6,0.7-5.2,0.7-7.8c0-24.2,0-48.4,0-72.6c0-0.2,0-0.5,0-0.7
	C143.9,181.8,143.7,181.8,143.6,181.7z"/>
</g></svg>
