<?xml version="1.0" encoding="utf-8"?>

<svg version="1.1" id="Layer_1" xmlns="http://www.w3.org/2000/svg" xmlns:xlink="http://www.w3.org/1999/xlink" 
	 viewBox="0 0 172 172" xml:space="preserve">
<style type="text/css">
	.st0{fill:#FFFFFF;}
	.st1{fill:#FFCF00;stroke:#4A5C68;stroke-width:6;stroke-miterlimit:10;}
</style><g transform="translate(0,33.100)">
<g>
	<path class="st0" d="M172,44.7c0,24.7-38.5,44.7-86,44.7c-22.3,0-42.7-4.4-58-11.7c-1.9,0.9-8,4.2-10.2,9.6
		c-2.6,6.4-4.8,18.6-4.8,18.6s-4.6-9.3-2.4-17.3c2.2-8,4-11.8,6.2-14.2c1-1,1.5-1.6,1.8-1.9c-1.1-0.7-2.2-1.5-3.2-2.3
		C5.7,62.9,0,54.1,0,44.7C0,20,38.5,0,86,0S172,20,172,44.7z"/>
	<line class="st1" x1="40" y1="30" x2="103" y2="30"/>
	<line class="st1" x1="40" y1="44.7" x2="100.2" y2="44.7"/>
	<line class="st1" x1="40" y1="58" x2="130" y2="58"/>
</g>
</g></svg>
