<?xml version="1.0" encoding="utf-8"?>
<!-- Generator: Adobe Illustrator 20.1.0, SVG Export Plug-In . SVG Version: 6.00 Build 0)  -->
<svg version="1.1" id="Layer_1" xmlns="http://www.w3.org/2000/svg" xmlns:xlink="http://www.w3.org/1999/xlink" x="0px" y="0px"
	 viewBox="0 0 137.6 130.6" style="enable-background:new 0 0 137.6 130.6;" xml:space="preserve">
<style type="text/css">
	.st0{fill:#FFFFFF;stroke:#FFFFFF;stroke-width:3;stroke-miterlimit:10;}
	.st1{fill:#FFFFFF;}
</style>
<g>
	<g>
		<circle class="st0" cx="66.6" cy="64.4" r="11.8"/>
		<polygon class="st0" points="51.7,115.2 80.2,115.2 77.2,103.1 110.1,94.4 66.6,84.9 66,84.8 65.4,84.9 21.9,94.4 54.8,103.1 		
			"/>
		<polygon class="st0" points="66.6,84.6 66.6,84.9 66,84.8 		"/>
		<polygon class="st0" points="66,84.8 65.4,84.9 65.4,84.6 		"/>
	</g>
	<g>
		<path class="st1" d="M101.9,51.1h-8c0-1.1,0-1.8,0-2.1c0-2.6,0.4-4.7,1.3-6.4c0.9-1.7,2.6-3.5,5.1-5.6c2.6-2.1,4.1-3.4,4.6-4.1
			c0.8-1,1.2-2.1,1.2-3.4c0-1.7-0.7-3.2-2-4.4c-1.4-1.2-3.2-1.8-5.5-1.8c-2.2,0-4.1,0.6-5.6,1.9c-1.5,1.3-2.5,3.2-3.1,5.8l-8.1-1
			c0.2-3.7,1.8-6.9,4.8-9.5c2.9-2.6,6.8-3.9,11.6-3.9c5,0,9.1,1.3,12,4c3,2.6,4.5,5.7,4.5,9.2c0,1.9-0.5,3.8-1.6,5.5
			c-1.1,1.7-3.4,4.1-7,7.1c-1.9,1.5-3,2.8-3.5,3.7C102.1,47,101.9,48.6,101.9,51.1z M93.9,62.9v-8.8h8.8v8.8H93.9z"/>
	</g>
</g>
</svg>
