<?xml version="1.0" standalone="no"?>
<!DOCTYPE svg PUBLIC "-//W3C//DTD SVG 20010904//EN"
 "http://www.w3.org/TR/2001/REC-SVG-20010904/DTD/svg10.dtd">
<svg version="1.0" xmlns="http://www.w3.org/2000/svg"
 width="514.000000pt" height="514.000000pt" viewBox="0 0 514.000000 514.000000"
 preserveAspectRatio="xMidYMid meet">
<metadata>
Created by potrace 1.11, written by Peter Selinger 2001-2013
</metadata>
<g transform="translate(0.000000,514.000000) scale(0.100000,-0.100000)"
fill="#000000" stroke="none">
<path d="M2015 4723 c-68 -9 -221 -33 -240 -37 -324 -70 -609 -199 -865 -391
-162 -121 -345 -309 -461 -471 -77 -107 -239 -399 -239 -430 0 -3 -6 -20 -14
-37 -25 -56 -77 -220 -91 -287 -40 -191 -43 -212 -52 -325 -12 -156 -6 -370
13 -487 39 -247 98 -436 199 -643 182 -373 459 -681 808 -897 117 -73 323
-170 453 -212 104 -34 125 -40 184 -52 14 -3 41 -9 60 -14 19 -5 53 -11 75
-15 22 -3 47 -7 55 -10 66 -17 399 -25 525 -11 136 14 325 50 358 67 9 6 17 7
17 5 0 -3 19 1 41 9 23 8 43 15 45 15 1 0 -4 -23 -12 -50 -8 -28 -12 -55 -9
-60 4 -6 158 -9 396 -8 337 2 391 4 403 18 7 8 78 209 156 445 130 394 146
437 195 510 71 109 112 182 168 301 43 92 119 303 131 364 3 14 14 68 25 120
23 114 29 162 37 300 7 105 8 109 354 1155 192 578 351 1059 353 1070 3 11 8
30 12 41 l6 22 -404 0 -403 0 -153 -459 -153 -459 -36 47 c-145 195 -347 384
-554 520 -105 69 -276 159 -367 194 -93 35 -195 71 -215 75 -10 2 -33 8 -50
13 -32 10 -210 46 -281 56 -49 7 -428 14 -470 8z m440 -156 c11 -2 41 -7 66
-11 195 -28 434 -106 616 -200 262 -137 517 -351 684 -578 22 -29 47 -61 55
-71 7 -9 14 -20 14 -23 0 -3 8 -18 19 -32 12 -17 16 -34 11 -47 -6 -16 -13
-10 -45 40 -209 330 -555 613 -925 760 -129 51 -188 68 -335 101 -197 44 -544
50 -737 14 -29 -6 -66 -13 -83 -16 -16 -3 -61 -14 -99 -25 -38 -12 -76 -22
-85 -24 -140 -32 -457 -201 -637 -340 -71 -54 -279 -269 -340 -350 -174 -230
-308 -518 -358 -766 -22 -111 -27 -140 -32 -184 -3 -27 -7 -60 -10 -72 -6 -30
-5 -309 1 -358 21 -164 30 -211 55 -309 238 -941 1117 -1568 2090 -1491 172
13 407 68 563 130 12 5 17 2 17 -9 0 -9 -16 -23 -37 -31 -50 -21 -229 -74
-273 -81 -19 -3 -38 -8 -41 -10 -4 -2 -31 -6 -60 -10 -30 -3 -57 -8 -60 -10
-8 -5 -167 -16 -260 -18 -262 -6 -572 57 -824 169 -366 162 -670 421 -888 756
-58 88 -155 276 -182 351 -34 94 -75 225 -87 277 -6 31 -12 58 -13 61 -1 3 -5
28 -10 55 -4 28 -9 57 -10 66 -2 9 -7 52 -11 95 -34 362 35 740 196 1069 50
101 149 266 196 324 170 212 309 344 496 470 77 51 274 161 290 161 4 0 16 4
26 10 64 35 264 102 377 125 41 8 202 33 245 38 46 5 399 0 425 -6z"/>
</g>
</svg>
